# ASF file generated by Tido's ASF writer for MATLAB.
:version 1.10
:name VICON
:units
  mass 1
  length 0.45000000000000001
  angle deg
:documentation
   .ast/.asf automatically generated from VICON data using
   VICON BodyBuilder and BodyLanguage model FoxedUp or BRILLIANT.MOD
:root
  axis xyz
  order tx ty tz rx ry rz 
  position 0 0 0
  orientation 0 0 0
:bonedata
  begin
    id 1
    name lhipjoint
    direction 0.44017800000000001 -0.82263900000000001 0.359871
    length 1.1390085000000001
    axis 0 0 0 xyz
  end
  begin
    id 2
    name lfemur
    direction 0.34201999999999999 -0.939693 0
    length 3.5465939999999998
    axis 0 0 20 xyz
    dof rx ry rz 
    limits (-160 20)
           (-70 70)
           (-60 70)
  end
  begin
    id 3
    name ltibia
    direction 0.34201999999999999 -0.939693 0
    length 3.7970234999999999
    axis 0 0 20 xyz
    dof rx 
    limits (-10 170)
  end
  begin
    id 4
    name lfoot
    direction 0.088635099999999994 -0.24352299999999999 0.96583699999999995
    length 1.1853629999999999
    axis -90 7.62852e-016 20 xyz
    dof rx rz 
    limits (-45 90)
           (-70 20)
  end
  begin
    id 5
    name ltoes
    direction 1.53703e-011 -4.2171700000000001e-011 1
    length 0.59142150000000004
    axis -90 7.62852e-016 20 xyz
    dof rx 
    limits (-90 20)
  end
  begin
    id 6
    name rhipjoint
    direction -0.399779 -0.83977299999999999 0.367367
    length 1.115766
    axis 0 0 0 xyz
  end
  begin
    id 7
    name rfemur
    direction -0.34201999999999999 -0.939693 0
    length 3.4866269999999999
    axis 0 0 -20 xyz
    dof rx ry rz 
    limits (-160 20)
           (-70 70)
           (-70 60)
  end
  begin
    id 8
    name rtibia
    direction -0.34201999999999999 -0.939693 0
    length 3.9349440000000002
    axis 0 0 -20 xyz
    dof rx 
    limits (-10 170)
  end
  begin
    id 9
    name rfoot
    direction -0.108514 -0.29813899999999999 0.94833400000000001
    length 1.1974590000000001
    axis -90 -7.62852e-016 -20 xyz
    dof rx rz 
    limits (-45 90)
           (-20 70)
  end
  begin
    id 10
    name rtoes
    direction -1.5339199999999999e-011 -4.2207699999999999e-011 1
    length 0.59392350000000005
    axis -90 -7.62852e-016 -20 xyz
    dof rx 
    limits (-90 20)
  end
  begin
    id 11
    name lowerback
    direction 0.011325699999999999 0.99986600000000003 0.0118602
    length 1.164123
    axis 0 0 0 xyz
    dof rx ry rz 
    limits (-20 45)
           (-30 30)
           (-30 30)
  end
  begin
    id 12
    name upperback
    direction -0.016474699999999998 0.99519299999999999 -0.096537499999999998
    length 1.135656
    axis 0 0 0 xyz
    dof rx ry rz 
    limits (-20 45)
           (-30 30)
           (-30 30)
  end
  begin
    id 13
    name thorax
    direction -0.019430099999999999 0.99433000000000005 -0.10455200000000001
    length 1.1524455
    axis 0 0 0 xyz
    dof rx ry rz 
    limits (-20 45)
           (-30 30)
           (-30 30)
  end
  begin
    id 14
    name lowerneck
    direction 0.014854300000000001 0.995587 -0.092657000000000003
    length 0.772119
    axis 0 0 0 xyz
    dof rx ry rz 
    limits (-20 45)
           (-30 30)
           (-30 30)
  end
  begin
    id 15
    name upperneck
    direction -0.0135467 0.99365599999999998 -0.111639
    length 0.76021650000000007
    axis 0 0 0 xyz
    dof rx ry rz 
    limits (-20 45)
           (-30 30)
           (-30 30)
  end
  begin
    id 16
    name head
    direction -0.0061534900000000002 0.99954699999999996 -0.029447999999999998
    length 0.78578999999999999
    axis 0 0 0 xyz
    dof rx ry rz 
    limits (-20 45)
           (-30 30)
           (-30 30)
  end
  begin
    id 17
    name lclavicle
    direction 0.98826700000000001 0.14988499999999999 0.029371299999999999
    length 2.012499
    axis 0 0 0 xyz
    dof ry rz 
    limits (-20 10)
           (0 20)
  end
  begin
    id 18
    name lhumerus
    direction 1 -4.4898600000000001e-011 -1.1483300000000001e-027
    length 2.4171659999999999
    axis 180 -30 -90 xyz
    dof rx ry rz 
    limits (-60 90)
           (-90 90)
           (-90 90)
  end
  begin
    id 19
    name lradius
    direction 0.99999800000000005 0.00170963 -0.00098705499999999992
    length 1.773954
    axis 180 -30 -90 xyz
    dof rx 
    limits (-10 170)
  end
  begin
    id 20
    name lwrist
    direction 0.99999800000000005 7.53149e-005 -0.00194706
    length 0.88697700000000002
    axis 4.6505600000000004e-015 90 90 xyz
    dof ry 
    limits (-180 0)
  end
  begin
    id 21
    name lhand
    direction 1 -4.48973e-011 -1.3174599999999999e-026
    length 0.5306265
    axis 8.4064999999999996e-015 90 90 xyz
    dof rx rz 
    limits (-90 90)
           (-45 45)
  end
  begin
    id 22
    name lfingers
    direction 1 -4.49107e-011 -2.6349199999999999e-026
    length 0.42780555000000003
    axis 1.6812999999999999e-014 90 90 xyz
    dof rx 
    limits (0 90)
  end
  begin
    id 23
    name lthumb
    direction 0.70710700000000004 -6.3504800000000005e-011 0.70710700000000004
    length 0.6142455
    axis -90 45 2.8529899999999998e-015 xyz
    dof rx rz 
    limits (-45 45)
           (-45 45)
  end
  begin
    id 24
    name rclavicle
    direction -0.996699 0.064289499999999999 -0.049572499999999999
    length 2.0817494999999999
    axis 0 0 0 xyz
    dof ry rz 
    limits (-10 20)
           (-20 0)
  end
  begin
    id 25
    name rhumerus
    direction -1 -4.4891899999999998e-011 -2.4105900000000001e-027
    length 2.474145
    axis 180 30 90 xyz
    dof rx ry rz 
    limits (-90 60)
           (-90 90)
           (-90 90)
  end
  begin
    id 26
    name rradius
    direction -0.99999899999999997 0.0011810099999999999 -0.00068185800000000003
    length 1.5677145000000001
    axis 180 30 90 xyz
    dof rx 
    limits (-10 170)
  end
  begin
    id 27
    name rwrist
    direction -0.99999899999999997 0.000321823 -0.00132288
    length 0.78385499999999997
    axis 4.6505600000000004e-015 -90 -90 xyz
    dof ry 
    limits (-180 0)
  end
  begin
    id 28
    name rhand
    direction -1 -4.4902199999999998e-011 -1.3174599999999999e-026
    length 0.60719400000000001
    axis 8.4064999999999996e-015 -90 -90 xyz
    dof rx rz 
    limits (-90 90)
           (-45 45)
  end
  begin
    id 29
    name rfingers
    direction -1 -4.4917800000000002e-011 -2.6349199999999999e-026
    length 0.48953249999999998
    axis 1.6812999999999999e-014 -90 -90 xyz
    dof rx 
    limits (0 90)
  end
  begin
    id 30
    name rthumb
    direction -0.70710700000000004 -6.3471300000000002e-011 0.70710700000000004
    length 0.70287750000000004
    axis -90 -45 -2.8529899999999998e-015 xyz
    dof rx rz 
    limits (-45 45)
           (-45 45)
  end
:hierarchy
begin
  root lhipjoint rhipjoint lowerback 
  lhipjoint lfemur 
  lfemur ltibia 
  ltibia lfoot 
  lfoot ltoes 
  rhipjoint rfemur 
  rfemur rtibia 
  rtibia rfoot 
  rfoot rtoes 
  lowerback upperback 
  upperback thorax 
  thorax lowerneck lclavicle rclavicle 
  lowerneck upperneck 
  upperneck head 
  lclavicle lhumerus 
  lhumerus lradius 
  lradius lwrist 
  lwrist lhand lthumb 
  lhand lfingers 
  rclavicle rhumerus 
  rhumerus rradius 
  rradius rwrist 
  rwrist rhand rthumb 
  rhand rfingers 
end

# AMC file generated by Tido's AMC writer for MATLAB on 27-Nov-2005 at 18:24:20
# Corresponding ASF file: S:\data_MoCap\MoCaDaDB\HDM\Bonn_ASF_AMC_Use IK_on\björn\bjorn.asf
# Number of frames: 542
# Sampling rate: 120
:fully-specified
:degrees
526
root 14.22972 8.6602950000000014 -0.50103900000000001 -1.34328 5.6311799999999996 358.81299999999999 
lfemur -15.998200000000001 7.5438799999999997 -18.007999999999999 
ltibia 33.715200000000003 
lfoot -9.7720199999999995 -10.0456 
ltoes -8.1862600000000008 
rfemur -13.9693 -4.4201800000000002 15.5296 
rtibia 57.704099999999997 
rfoot -5.3100100000000001 16.857800000000001 
rtoes -14.565899999999999 
lowerback -3.0547499999999999 -0.51169100000000001 -5.04366 
upperback 10.8826 0.21798899999999999 -3.33812 
thorax 13.603199999999999 -0.186449 -0.82408700000000001 
lowerneck 2.4325399999999999 -3.3036400000000001 -0.12584100000000001 
upperneck 18.722300000000001 -5.3037999999999998 5.4278500000000003 
head 5.3875900000000003 -2.2764000000000002 1.51278 
lclavicle 1.63003e-014 2.7034699999999999e-014 
lhumerus -1.1413500000000001 -1.0389999999999999 74.452100000000002 
lradius 26.739899999999999 
lwrist -24.2836 
lhand -18.497499999999999 -6.2281599999999999 
lfingers 7.1250200000000001 
lthumb 7.7901699999999998 23.6083 
rclavicle 1.63003e-014 2.7034699999999999e-014 
rhumerus -36.348500000000001 -32.567700000000002 -77.492400000000004 
rradius 18.7317 
rwrist 22.014500000000002 
rhand -7.0121099999999998 11.0471 
rfingers 7.1250200000000001 
rthumb 18.859200000000001 -18.058700000000002 
527
root 14.237055 8.6620499999999989 -0.48164399999999996 -1.27146 5.4260400000000004 358.81400000000002 
lfemur -15.8858 7.6396100000000002 -18.021799999999999 
ltibia 33.726100000000002 
lfoot -9.9578100000000003 -9.9482599999999994 
ltoes -8.0541199999999993 
rfemur -14.4724 -4.4228100000000001 15.592499999999999 
rtibia 57.331000000000003 
rfoot -5.9075699999999998 16.887899999999998 
rtoes -14.3772 
lowerback -2.9389599999999998 -0.54267900000000002 -5.0760500000000004 
upperback 10.860900000000001 0.17062099999999999 -3.36673 
thorax 13.5059 -0.20977000000000001 -0.84176600000000001 
lowerneck 2.4185400000000001 -3.2835000000000001 -0.12632399999999999 
upperneck 18.765799999999999 -5.2712399999999997 5.36646 
head 5.4009999999999998 -2.2637299999999998 1.4945200000000001 
lclavicle -2.6637099999999999e-014 -4.29375e-014 
lhumerus -0.80664499999999995 -1.54667 74.051599999999993 
lradius 27.476400000000002 
lwrist -23.628299999999999 
lhand -18.4649 -6.3248499999999996 
lfingers 7.1250200000000001 
lthumb 7.8216799999999997 23.5105 
rclavicle -2.6637099999999999e-014 -4.29375e-014 
rhumerus -36.481400000000001 -31.8522 -77.843299999999999 
rradius 19.116399999999999 
rwrist 21.1175 
rhand -7.1070399999999996 11.0068 
rfingers 7.1250200000000001 
rthumb 18.767900000000001 -18.107800000000001 
528
root 14.243535 8.6629950000000004 -0.4618485 -1.20208 5.2079399999999998 358.79399999999998 
lfemur -15.7858 7.7585100000000002 -18.008199999999999 
ltibia 33.750999999999998 
lfoot -10.1587 -9.8634500000000003 
ltoes -8.0724999999999998 
rfemur -14.952299999999999 -4.4484500000000002 15.6928 
rtibia 56.897799999999997 
rfoot -6.5784000000000002 16.894400000000001 
rtoes -14.073700000000001 
lowerback -2.8405499999999999 -0.55731200000000003 -5.0925799999999999 
upperback 10.850199999999999 0.14552000000000001 -3.3916200000000001 
thorax 13.432 -0.221357 -0.86149900000000001 
lowerneck 2.3974899999999999 -3.2579899999999999 -0.13002900000000001 
upperneck 18.7714 -5.2406600000000001 5.3768200000000004 
head 5.4056300000000004 -2.2487499999999998 1.4991699999999999 
lclavicle 5.9635399999999999e-015 -1.5902800000000001e-014 
lhumerus -0.492757 -1.6675599999999999 73.852599999999995 
lradius 28.179099999999998 
lwrist -23.382899999999999 
lhand -18.4575 -6.41066 
lfingers 7.1250200000000001 
lthumb 7.8288200000000003 23.424399999999999 
rclavicle 5.9635399999999999e-015 -1.5902800000000001e-014 
rhumerus -36.564999999999998 -31.0867 -78.200800000000001 
rradius 19.476500000000001 
rwrist 20.2361 
rhand -7.1661400000000004 10.9834 
rfingers 7.1250200000000001 
rthumb 18.710999999999999 -18.136700000000001 
529
root 14.249745000000001 8.6626349999999999 -0.44252144999999998 -1.1244700000000001 4.9790900000000002 358.75299999999999 
lfemur -15.7012 7.9112499999999999 -17.968699999999998 
ltibia 33.781399999999998 
lfoot -10.346299999999999 -9.8259399999999992 
ltoes -8.01037 
rfemur -15.4236 -4.4434899999999997 15.8316 
rtibia 56.406500000000001 
rfoot -7.2008700000000001 16.894300000000001 
rtoes -13.4658 
lowerback -2.7389000000000001 -0.56822899999999998 -5.0958300000000003 
upperback 10.821 0.119564 -3.3893499999999999 
thorax 13.333399999999999 -0.23357800000000001 -0.85788600000000004 
lowerneck 2.39384 -3.2460499999999999 -0.20977799999999999 
upperneck 18.785900000000002 -5.2294 5.4063699999999999 
head 5.4128499999999997 -2.2471000000000001 1.522 
lclavicle -1.9083300000000001e-014 -2.7034699999999999e-014 
lhumerus -0.25850899999999999 -2.0585200000000001 73.578999999999994 
lradius 28.991299999999999 
lwrist -22.671199999999999 
lhand -18.364599999999999 -6.3422099999999997 
lfingers 7.1250200000000001 
lthumb 7.9184900000000003 23.4895 
rclavicle -1.9083300000000001e-014 -2.7034699999999999e-014 
rhumerus -36.671500000000002 -30.713799999999999 -78.386200000000002 
rradius 19.729299999999999 
rwrist 19.793500000000002 
rhand -7.3002799999999999 10.999499999999999 
rfingers 7.1250200000000001 
rthumb 18.582000000000001 -18.132899999999999 
530
root 14.255100000000001 8.6612399999999994 -0.42327854999999998 -1.0626 4.7480599999999997 358.755 
lfemur -15.613099999999999 8.0404599999999995 -17.969899999999999 
ltibia 33.838700000000003 
lfoot -10.542299999999999 -9.7409400000000002 
ltoes -7.88802 
rfemur -15.8438 -4.4744200000000003 15.935 
rtibia 55.858899999999998 
rfoot -7.8844200000000004 16.886700000000001 
rtoes -13.075200000000001 
lowerback -2.6781999999999999 -0.57754799999999995 -5.1560800000000002 
upperback 10.8164 0.10646700000000001 -3.3899699999999999 
thorax 13.2911 -0.24612500000000001 -0.82583200000000001 
lowerneck 2.4705599999999999 -3.2089300000000001 -0.32118999999999998 
upperneck 18.721900000000002 -5.1894 5.5134299999999996 
head 5.3835699999999997 -2.2322600000000001 1.57735 
lclavicle 2.3854199999999999e-014 1.9083300000000001e-014 
lhumerus 0.081159899999999993 -2.3349299999999999 73.346699999999998 
lradius 29.7087 
lwrist -21.888400000000001 
lhand -18.1204 -6.2920999999999996 
lfingers 7.1250200000000001 
lthumb 8.1540999999999997 23.5306 
rclavicle 2.3854199999999999e-014 1.9083300000000001e-014 
rhumerus -36.734299999999998 -30.226400000000002 -78.593500000000006 
rradius 19.987200000000001 
rwrist 19.229099999999999 
rhand -7.3974299999999999 11.0291 
rfingers 7.1250200000000001 
rthumb 18.488600000000002 -18.112300000000001 
531
root 14.26032 8.6603849999999998 -0.40424129999999997 -0.99501399999999995 4.4967600000000001 358.714 
lfemur -15.542 8.2501800000000003 -17.919499999999999 
ltibia 33.915999999999997 
lfoot -10.7563 -9.7198899999999995 
ltoes -7.8779599999999999 
rfemur -16.245100000000001 -4.4810600000000003 16.0975 
rtibia 55.251300000000001 
rfoot -8.6262899999999991 16.9114 
rtoes -12.634600000000001 
lowerback -2.68038 -0.577376 -5.1460400000000002 
upperback 10.811400000000001 0.10508000000000001 -3.39602 
thorax 13.286300000000001 -0.24570700000000001 -0.83818899999999996 
lowerneck 2.6219899999999998 -3.1742300000000001 -0.39760499999999999 
upperneck 18.614899999999999 -5.1463299999999998 5.5990200000000003 
head 5.3269299999999999 -2.2172100000000001 1.6217200000000001 
lclavicle 1.1131899999999999e-014 3.4986099999999999e-014 
lhumerus 0.35098000000000001 -2.4918100000000001 73.172700000000006 
lradius 30.4618 
lwrist -21.2836 
lhand -17.846599999999999 -6.1985700000000001 
lfingers 7.1250200000000001 
lthumb 8.4184099999999997 23.613700000000001 
rclavicle 1.1131899999999999e-014 3.4986099999999999e-014 
rhumerus -36.777900000000002 -29.806100000000001 -78.811199999999999 
rradius 20.207799999999999 
rwrist 18.773800000000001 
rhand -7.4935700000000001 11.0541 
rfingers 7.1250200000000001 
rthumb 18.396100000000001 -18.0961 
532
root 14.265000000000001 8.6594850000000001 -0.38532060000000001 -0.91378400000000004 4.2792199999999996 358.69400000000002 
lfemur -15.4963 8.4555100000000003 -17.892299999999999 
ltibia 34.0062 
lfoot -10.9597 -9.7522199999999994 
ltoes -7.81121 
rfemur -16.630700000000001 -4.5221099999999996 16.250900000000001 
rtibia 54.5899 
rfoot -9.4594900000000006 16.959299999999999 
rtoes -12.370100000000001 
lowerback -2.6965400000000002 -0.59351100000000001 -5.1850800000000001 
upperback 10.8085 0.085802900000000001 -3.3858000000000001 
thorax 13.2942 -0.26025599999999999 -0.80837099999999995 
lowerneck 2.7728299999999999 -3.1390899999999999 -0.518007 
upperneck 18.5181 -5.1028200000000004 5.6876300000000004 
head 5.2745300000000004 -2.2044000000000001 1.67425 
lclavicle 6.3611099999999997e-015 0 
lhumerus 0.62254600000000004 -2.70377 72.950199999999995 
lradius 31.202100000000002 
lwrist -20.628 
lhand -17.617000000000001 -6.1237500000000002 
lfingers 7.1250200000000001 
lthumb 8.6399799999999995 23.679400000000001 
rclavicle 6.3611099999999997e-015 0 
rhumerus -36.786299999999997 -29.114999999999998 -79.112099999999998 
rradius 20.461600000000001 
rwrist 18.019500000000001 
rhand -7.5772199999999996 11.101100000000001 
rfingers 7.1250200000000001 
rthumb 18.3156 -18.0566 
